PathFileType	4	(X/Y/Z)	C:\Users\Biomechanik\SynologyDrive\AlexP\Athlete_03\Athlete_3_25_03_31\Deadlift_bw_01\marker_experimental.trc
DataRate	CameraRate	NumFrames	NumMarkers	Units	OrigDataRate	OrigDataStartFrame	OrigNumFrames
200.000000	200.000000	4	55	mm	200.000000	0	1527
Frame#	Time	BL			BR			GLAB			RFHD			LFHD			C7			T6			SPINMOL			SPINM2			SPINM3			T12			BELTOL			BELT2			BELT3			SACROL			SACR2			SACR3			LTHOL			LTH2			LTH3			LSHAOL			LSHA2			LSHA3			LHEE			LTOE			LM5			RTHOL			RTH2			RTH3			RSHAOL			RSHA2			RSHA3			RHEE			RTOE			RM5			STRN			XIPH			LACR			LUAOL			LUA2			LUA3			LLAOL			LLA2			LLA3			LWRR			LWRU			RACR			RUAOL			RUA2			RUA3			RLAOL			RLA2			RLA3			RWRR			RWRU			
		X1	Y1	Z1	X2	Y2	Z2	X3	Y3	Z3	X4	Y4	Z4	X5	Y5	Z5	X6	Y6	Z6	X7	Y7	Z7	X8	Y8	Z8	X9	Y9	Z9	X10	Y10	Z10	X11	Y11	Z11	X12	Y12	Z12	X13	Y13	Z13	X14	Y14	Z14	X15	Y15	Z15	X16	Y16	Z16	X17	Y17	Z17	X18	Y18	Z18	X19	Y19	Z19	X20	Y20	Z20	X21	Y21	Z21	X22	Y22	Z22	X23	Y23	Z23	X24	Y24	Z24	X25	Y25	Z25	X26	Y26	Z26	X27	Y27	Z27	X28	Y28	Z28	X29	Y29	Z29	X30	Y30	Z30	X31	Y31	Z31	X32	Y32	Z32	X33	Y33	Z33	X34	Y34	Z34	X35	Y35	Z35	X36	Y36	Z36	X37	Y37	Z37	X38	Y38	Z38	X39	Y39	Z39	X40	Y40	Z40	X41	Y41	Z41	X42	Y42	Z42	X43	Y43	Z43	X44	Y44	Z44	X45	Y45	Z45	X46	Y46	Z46	X47	Y47	Z47	X48	Y48	Z48	X49	Y49	Z49	X50	Y50	Z50	X51	Y51	Z51	X52	Y52	Z52	X53	Y53	Z53	X54	Y54	Z54	X55	Y55	Z55	

1	0	1214.232666015625	39.26649093627944	-2269.203369140625	1226.85302734375	29.81611442565919	-248.9720306396484	356.1557006835938	1598.434936523438	-1201.2373046875	311.3208312988281	1627.27001953125	-1136.139282226562	312.4698791503906	1627.369750976562	-1271.619750976562	126.4831390380859	1442.55029296875	-1209.741088867188	81.4305419921875	1268.532836914062	-1218.95458984375	77.42084503173828	1232.466674804688	-1240.560180664062	73.66289520263672	1223.109252929688	-1191.019897460938	83.04532623291016	1168.202880859375	-1226.943603515625	96.00237274169922	1113.353149414062	-1224.333740234375	75.15087127685547	1088.0478515625	-1240.102294921875	76.95954132080078	1085.668090820312	-1189.898071289062	68.797119140625	1025.798217773438	-1218.501708984375	69.91619873046875	963.6082153320314	-1241.292724609375	72.095458984375	960.6311035156251	-1189.90380859375	51.9959716796875	903.7502441406251	-1217.924926757812	163.9898529052734	682.6364746093751	-1406.13330078125	114.6656875610352	627.3896484375001	-1376.56494140625	161.9973602294922	622.4733886718751	-1393.14794921875	144.8540344238281	327.0233154296876	-1408.053955078125	95.76306915283203	264.977996826172	-1397.60107421875	145.2636871337891	265.2881164550782	-1404.830322265625	75.13927459716797	67.98788452148446	-1321.667358398438	292.6780090332031	48.85059356689461	-1330.204833984375	243.4988861083984	29.35498619079599	-1430.241088867188	152.7346496582031	696.2806396484376	-1032.879638671875	208.2948303222656	640.1843872070314	-1019.999877929688	161.8091430664062	635.2023315429689	-1037.594360351562	126.6112518310547	345.8071899414063	-1020.486572265625	158.4396057128906	274.0108642578126	-1014.168518066406	112.7914733886719	285.2116088867188	-1030.0419921875	75.67402648925781	63.51322174072273	-1114.220092773438	288.9632568359375	48.60102081298835	-1102.510498046875	237.0970764160156	38.97903823852545	-1003.243713378906	301.3246154785156	1354.254272460938	-1214.628540039062	327.3912048339844	1214.27490234375	-1218.976928710938	222.7007598876953	1408.25244140625	-1392.755737304688	235.3729095458984	1244.839111328125	-1494.228637695312	225.4194793701172	1182.3876953125	-1512.276123046875	268.6082458496094	1189.100463867188	-1485.933959960938	276.4487609863281	980.5394287109376	-1526.07958984375	241.8509521484375	910.2962036132814	-1514.525756835938	290.4889526367188	920.7325439453126	-1520.2392578125	322.6233825683594	821.4572753906251	-1510.127319335938	355.8616027832031	836.2925415039064	-1438.390747070312	233.2238006591797	1398.145263671875	-1039.529296875	239.1894683837891	1234.97509765625	-947.4133911132811	267.7337951660156	1175.03857421875	-952.3226318359374	220.5394287109375	1173.811157226562	-928.9691162109374	276.5142211914062	954.7504882812501	-928.8528442382811	341.0514831542969	907.77490234375	-924.575927734375	293.9664916992188	894.9118041992189	-936.7730712890625	342.180419921875	817.3778686523439	-944.0616455078125	366.4628295898438	818.3916015625001	-1021.842956542969	
2	0.005	1214.233276367188	39.265651702881	-2269.20458984375	1226.853271484375	29.81905555725099	-248.9625396728516	356.4964294433594	1598.346069335938	-1201.304077148438	311.685546875	1627.21826171875	-1136.217895507812	312.8199462890625	1627.29296875	-1271.691650390625	126.7080230712891	1442.635864257812	-1209.755737304688	81.47782897949219	1268.659301757812	-1218.963623046875	77.43568420410156	1232.591430664062	-1240.570190429688	73.67094421386719	1223.239501953125	-1191.029418945312	83.00421905517578	1168.324462890625	-1226.951904296875	95.90131378173828	1113.42333984375	-1224.336669921875	75.08937835693359	1088.150756835938	-1240.092651367188	76.85495758056641	1085.741943359375	-1189.903564453125	68.63699340820312	1025.885131835938	-1218.498901367188	69.71693420410156	963.5899047851564	-1241.287963867188	71.88510894775391	960.6130981445314	-1189.904052734375	51.83576202392578	903.7536621093751	-1217.911743164062	163.9031829833984	682.5909423828126	-1406.141235351562	114.5981369018555	627.3369750976564	-1376.565673828125	161.9310150146484	622.4398193359376	-1393.151733398438	144.8663330078125	327.0128173828126	-1408.055786132812	95.77710723876953	264.9649353027345	-1397.615356445312	145.2789154052734	265.2788085937501	-1404.831298828125	75.13835144042969	67.9854049682618	-1321.67041015625	292.6788330078125	48.84982299804695	-1330.2001953125	243.5001373291016	29.35877227783212	-1430.23583984375	152.6379241943359	696.2495117187501	-1032.829345703125	208.2217102050781	640.1834716796876	-1019.975830078125	161.7398376464844	635.1779785156251	-1037.561157226562	126.6317977905273	345.7929687500001	-1020.467346191406	158.46435546875	273.9985351562501	-1014.161437988281	112.8108062744141	285.1971435546876	-1030.023559570312	75.67015075683594	63.50657653808601	-1114.219482421875	288.9649353027344	48.6027908325196	-1102.507446289062	237.0894012451172	38.98631668090827	-1003.249206542969	301.4769287109375	1354.196044921875	-1214.649291992188	327.3379821777344	1214.08544921875	-1218.974609375	222.8912963867188	1408.250366210938	-1392.774291992188	235.4825744628906	1244.836303710938	-1494.266479492188	225.5050811767578	1182.393432617188	-1512.336547851562	268.689208984375	1189.073364257812	-1485.955200195312	276.4570007324219	980.5173339843751	-1526.124877929688	241.8381195068359	910.2823486328126	-1514.558837890625	290.4801635742188	920.7025146484376	-1520.264404296875	322.5775756835938	821.4122314453126	-1510.149169921875	355.8101196289062	836.2505493164064	-1438.4189453125	233.4378509521484	1398.153442382812	-1039.561645507812	239.3338775634766	1235.002563476562	-947.4209594726561	267.850341796875	1175.035888671875	-952.3609619140624	220.6678161621094	1173.856567382812	-928.9475708007811	276.5439758300781	954.7651367187501	-928.8247070312499	341.0634155273438	907.760986328125	-924.586669921875	293.9696044921875	894.9180908203126	-936.7438354492188	342.1478576660156	817.3627929687501	-944.0353393554688	366.3992614746094	818.3535766601564	-1021.821472167969	
3	0.01	1214.234008789062	39.2646980285646	-2269.205810546875	1226.853515625	29.82219886779787	-248.95166015625	356.8985595703125	1598.238525390625	-1201.380737304688	312.1159973144531	1627.154663085938	-1136.308349609375	313.2296142578125	1627.200927734375	-1271.758544921875	126.972282409668	1442.736083984375	-1209.773315429688	81.53369140625	1268.807861328125	-1218.973999023438	77.45311737060547	1232.73779296875	-1240.58154296875	73.68135833740234	1223.392578125	-1191.04052734375	82.95636749267578	1168.467163085938	-1226.960571289062	95.7833251953125	1113.506469726562	-1224.338989257812	75.00686645507812	1088.266357421875	-1240.08349609375	76.7303466796875	1085.8310546875	-1189.908447265625	68.44795989990234	1025.987548828125	-1218.49560546875	69.48298645019531	963.5701293945314	-1241.280517578125	71.63987731933594	960.5954589843751	-1189.900512695312	51.64277267456055	903.7542724609376	-1217.895629882812	163.8011779785156	682.5359497070314	-1406.152709960938	114.5194549560547	627.2737426757814	-1376.568603515625	161.8539733886719	622.3999023437501	-1393.157470703125	144.8815002441406	327.0013732910157	-1408.057983398438	95.79452514648438	264.9499511718751	-1397.631958007812	145.2977905273438	265.2679443359376	-1404.832397460938	75.13739776611328	67.98248291015634	-1321.673828125	292.6798706054688	48.84894561767586	-1330.194702148438	243.5014953613281	29.36351013183603	-1430.2294921875	152.5225067138672	696.2122802734376	-1032.770263671875	208.1338958740234	640.1820678710939	-1019.947265625	161.6572723388672	635.1486206054689	-1037.522094726562	126.655647277832	345.7762145996094	-1020.445495605469	158.4925384521484	273.9838562011719	-1014.15283203125	112.8332595825195	285.1802978515626	-1030.002685546875	75.66516876220703	63.49824142456062	-1114.218872070312	288.9666748046875	48.60499572753913	-1102.503784179688	237.0814056396484	38.99433898925788	-1003.255187988281	301.6556091308594	1354.127075195312	-1214.6748046875	327.2809753417969	1213.869750976562	-1218.973999023438	223.1152648925781	1408.247924804688	-1392.796264648438	235.611572265625	1244.833129882812	-1494.30908203125	225.6053619384766	1182.397338867188	-1512.400146484375	268.7854309082031	1189.041015625	-1485.980346679688	276.4658203125	980.4915161132814	-1526.1767578125	241.8227233886719	910.2662353515626	-1514.597412109375	290.469482421875	920.6674194335939	-1520.2939453125	322.5235900878906	821.3599243164064	-1510.175170898438	355.7498168945312	836.2004394531251	-1438.450561523438	233.6883850097656	1398.1611328125	-1039.601196289062	239.5031585693359	1235.033569335938	-947.4309082031249	267.987060546875	1175.035278320312	-952.3973999023436	220.817626953125	1173.909057617188	-928.9249877929686	276.5782470703125	954.7813720703126	-928.7926635742186	341.0757141113281	907.7420043945312	-924.5994873046875	293.9725646972656	894.9243164062501	-936.7102661132812	342.1091918945312	817.3439331054689	-944.0045776367188	366.32568359375	818.3084106445314	-1021.795776367188	
4	0.015	1214.23486328125	39.26366043090835	-2269.20703125	1226.853759765625	29.82543945312501	-248.9395294189453	357.3621215820312	1598.111206054688	-1201.466918945312	312.6123352050781	1627.07861328125	-1136.409912109375	313.69970703125	1627.093383789062	-1271.821655273438	127.2755813598633	1442.850463867188	-1209.7939453125	81.59817504882812	1268.978271484375	-1218.985229492188	77.47310638427734	1232.905517578125	-1240.593872070312	73.69442749023438	1223.568115234375	-1191.052978515625	82.90206146240234	1168.630493164062	-1226.969360351562	95.64872741699219	1113.602661132812	-1224.340209960938	74.90129089355469	1088.393920898438	-1240.07470703125	76.58576202392578	1085.935913085938	-1189.91259765625	68.23017883300781	1026.10546875	-1218.491943359375	69.21463775634766	963.5494384765626	-1241.269897460938	71.36063385009766	960.5790405273439	-1189.892333984375	51.41656875610352	903.7516479492189	-1217.876098632812	163.6839752197266	682.4713134765626	-1406.16796875	114.429931640625	627.1996459960939	-1376.574829101562	161.7665863037109	622.3535766601564	-1393.16552734375	144.8997802734375	326.9891662597657	-1408.060546875	95.81558990478516	264.9331359863282	-1397.65087890625	145.320556640625	265.2555541992189	-1404.833740234375	75.13642120361328	67.97913360595712	-1321.677734375	292.6811218261719	48.84797286987313	-1330.188232421875	243.5028991699219	29.36927032470712	-1430.221923828125	152.3881225585938	696.1687622070314	-1032.702758789062	208.031005859375	640.1800537109376	-1019.913940429688	161.5612640380859	635.1141357421876	-1037.477294921875	126.6828460693359	345.7569274902344	-1020.421203613281	158.5240173339844	273.9667663574219	-1014.142700195312	112.8588562011719	285.1610717773438	-1029.9794921875	75.65899658203125	63.48808670043952	-1114.218383789062	288.9684448242188	48.60766220092781	-1102.499389648438	237.0731964111328	39.00301361083991	-1003.261535644531	301.8603210449219	1354.046997070312	-1214.70556640625	327.2225036621094	1213.630737304688	-1218.975952148438	223.3724365234375	1408.245361328125	-1392.821899414062	235.759765625	1244.829711914062	-1494.356201171875	225.7205352783203	1182.399291992188	-1512.46630859375	268.8968505859375	1189.003295898438	-1486.009399414062	276.4749755859375	980.4620361328126	-1526.235107421875	241.8046875	910.2478027343751	-1514.641235351562	290.4568481445312	920.6275024414064	-1520.327880859375	322.4614868164062	821.3005371093751	-1510.205322265625	355.6807556152344	836.1420898437501	-1438.484741210938	233.974853515625	1398.167846679688	-1039.647827148438	239.6968688964844	1235.0673828125	-947.4434814453124	268.1431579589844	1175.037353515625	-952.4298706054686	220.9883422851562	1173.968505859375	-928.9022827148436	276.61669921875	954.7988281250001	-928.7569580078124	341.0877380371094	907.7171630859375	-924.6143188476562	293.9750366210938	894.9300537109376	-936.6727294921875	342.0643920898438	817.3211059570314	-943.969482421875	366.2425842285156	818.2559204101564	-1021.765747070312	
